<svg id="logo-wt" viewBox="0 0 167 80" xmlns="http://www.w3.org/2000/svg">
<path fill-rule="evenodd" clip-rule="evenodd" d="M166 80H161L156 68H152V80H147V51H161.215L165.978 55.8333V63.0833L161.038 68L166 80ZM161.038 61V58L159 56H152V63H159L161.038 61ZM123 51L142 50.978V56H128V63H135V68H128V75H142V80H123V51ZM38 51H43V80H38V68H29V80H24V51H29V63H38V51ZM19 56H12V80H7V56H0V51H19V56ZM53 73L55 75H61L63 73V51H68V75L63 80H53L48 75V51H53V73ZM88 69.5V51H93V80H87.7634L78 61.5V80H73V51H78.5L88 69.5ZM118 56V75L113 80H98V51H113L118 56ZM103 56V75H111L113 73V58L111 56H104H103Z"/>
<path fill-rule="evenodd" clip-rule="evenodd" d="M121.278 45L121 44H123L122 41.5L122.5 40.5L126.5 39.5L126.137 38.661L131 37L134 45H121.278ZM130.2 35L125.5 36.1299L125.258 35.3459L122.399 36.1299C122.179 35.6147 122 35 122 35H120L119 33H114V32.2773C114 32.2773 112.13 31.8741 110.525 31.8741C108.898 31.8741 107 32.2773 107 32.2773V33H106L103.972 38.3922V25.9383C105.753 25.5127 107.249 25.1543 108.15 24.9527C108.832 24.7959 109.162 23.6536 109.338 21.8616C109.513 19.9577 109.184 19.8681 107.49 19.7561C106.545 19.6889 105.335 19.6217 103.994 19.5769V0.0224006H128L133 5V24L128 29L130.2 35ZM126 7H111V22H126V7ZM92.6036 44.7312C92.6036 44.328 92.6036 43.8576 92.6036 43.2081C92.6036 42.1329 92.0978 42.1105 90.9104 41.6625C89.2392 41.0129 86.6005 40.4754 86.6005 40.4754C86.6005 40.4754 87.3261 31.9189 87.3921 31.3365C87.4801 30.5973 87.9199 30.3061 88.8214 29.8805C89.3052 29.6565 92.0979 28.9174 95.4402 28.0662L100 45H92.5376C92.6036 44.8656 92.6036 44.7536 92.6036 44.7312ZM87.3921 18.009C87.3481 17.3594 87.4141 11.9836 86.9083 10.9308C86.4246 9.87805 85.3031 8.5789 85.3031 8.5789H84.4455C84.4455 8.5789 83.3461 9.87805 82.8403 10.9308C82.3566 11.9836 82.4225 17.3594 82.3565 18.009C82.3126 18.6585 82.1806 18.8601 81.3011 19.0393C80.8173 19.1289 78.9922 19.1961 76.5733 19.2633L81.3011 0L88.4256 0.0224006L93.1314 19.2633C90.7345 19.1961 88.9094 19.1289 88.4256 19.0393C87.546 18.8601 87.4361 18.6585 87.3921 18.009ZM82.4005 31.3365C82.4665 31.9189 83.1921 40.4754 83.1921 40.4754C83.1921 40.4754 80.5314 41.0353 78.8822 41.6625C77.6948 42.1105 77.189 42.1553 77.189 43.2081C77.189 43.8576 77.189 44.328 77.189 44.7312C77.189 44.7536 77.1671 44.8656 77.255 45H69.9985L74.3304 28.0438C77.6948 28.895 80.4655 29.6341 80.9712 29.8581C81.8508 30.2837 82.3126 30.5749 82.4005 31.3365ZM62.2803 19.7337L65 0H72.5L69.6907 19.4201C66.854 19.5097 64.1054 19.5993 62.2803 19.7337ZM66.0844 45H59.5975H55.0677V33.778C55.0677 33.778 55.2437 33.7108 54.1662 33.778C53.0887 33.8452 48.339 37.0483 45.7442 37.9219C43.1715 38.773 38.2239 39.0418 38.2239 39.0418C38.2239 39.0418 40.2689 41.3265 41.5883 43.6336C41.8301 44.0368 42.028 44.5072 42.2259 45H38.2459L32 0H39.5L43.1715 28.4918L47.2175 4H54V12C53.3183 12.0896 52.9128 12.0732 52.2971 12.5884C52.2971 12.9915 52.2971 13.6192 52.2971 14H47L50 15H53L52.9787 20.8313C51.9672 21.0329 50.9777 21.4584 50.0542 22.0632C50.0542 22.9592 50.0542 23.8328 50.0542 24.7287C50.2741 24.7287 50.4939 24.7287 50.7138 24.7287V29.7461H49.0207L44.3369 27.1702L43.8312 28.0662L48.6688 31.0901L48.2071 32.7924H48.1411L41.1924 28.9622L40.6867 29.8581L45.4804 32.8596L44.7547 34.4724L38.048 30.7765L37.5422 31.6725L44.161 35.8163L43.5233 37.2275C44.2929 37.0931 45.0406 36.9139 45.6343 36.7123C48.273 35.8163 53.0667 32.546 54.1662 32.4564C54.452 32.434 54.584 32.434 54.6279 32.4116C54.6719 32.4116 54.8039 32.434 55.0897 32.4564C56.1892 32.5236 60.9829 35.8163 63.6216 36.7123C64.2373 36.9139 64.963 37.0931 65.7326 37.2275L63.7755 32.8596H61.0488L60.2133 29.8357H58.5201V24.8183C58.74 24.8183 58.9599 24.8183 59.1798 24.8183C59.1798 23.9223 59.1798 23.0488 59.1798 22.1528C58.2782 21.548 57.2887 21.1448 56.2771 20.9209L56 15H58.9L61.2028 28.2454L61.6206 25.0199C61.6206 25.0199 61.6206 25.0199 61.6426 25.0199C63.0059 25.3335 65.7106 25.9831 68.7011 26.7222L66.0844 45ZM56.9588 12.5884C56.3651 12.0732 55.7714 12.0896 55.0897 12V4H56.9368L58.75 14H57C57.022 13.5968 56.9588 12.9691 56.9588 12.5884ZM107.93 38.0114L108.92 35.8835L109.909 38.0114L112.218 38.3026L110.525 39.9154L110.965 42.2449L108.942 41.1025L106.919 42.2449L107.358 39.9154L105.665 38.3026L107.93 38.0114Z"/>
<path fill-rule="evenodd" clip-rule="evenodd" d="M22.5 32L17.5 29L12.5 32L13.5 26L9 22L15 21L17.5 15.5L20 21L26 22L21.5 26L22.5 32Z"/>
<path fill-rule="evenodd" clip-rule="evenodd" d="M154.5 32L149.5 29L144.5 32L145.5 26L141 22L147 21L149.5 15.5L152 21L158 22L153.5 26L154.5 32Z"/>
</svg>
